<svg xmlns="http://www.w3.org/2000/svg" viewBox="0 0 320 320" width="320" height="320"><g stroke="#756653" stroke-width="4.2" stroke-linecap="round" stroke-linejoin="round"><path fill="#bdcac8" d="M113 115q-41-35-53 9q-10 60 52 55m99-66q41-35 53 9q10 60-52 55"/><path fill="#ced8d4" d="M109 125q0-47 49-47q56 0 55 52l4 103q-2 21-22 17l-12-13h-47l-12 13q-23 4-24-17Z"/><circle cx="138" cy="140" r="18" fill="#e7eeea"/><circle cx="181" cy="140" r="18" fill="#e7eeea"/><path d="M156 138h8"/><circle cx="138" cy="140" r="3" fill="#756653"/><circle cx="181" cy="140" r="3" fill="#756653"/><path fill="#ced8d4" d="M149 152v31q3 23 26 17q17-7 9-20q-4-5-10 5q-4 4-5-3v-30"/><path fill="#f3e7cc" d="M117 202q18-6 41 5q24-11 43-5v35q-21-4-43 6q-21-10-41-6Z"/><path d="M158 209v32"/></g></svg>